<svg xmlns="http://www.w3.org/2000/svg" version="1.1" xmlns:xlink="http://www.w3.org/1999/xlink" xmlns:svgjs="http://svgjs.dev/svgjs" width="2000" height="2242" viewBox="0 0 2000 2242"><g transform="matrix(1,0,0,1,-3.115264797507507,0)"><svg viewBox="0 0 321 360" data-background-color="#373234" preserveAspectRatio="xMidYMid meet" height="2242" width="2000" xmlns="http://www.w3.org/2000/svg" xmlns:xlink="http://www.w3.org/1999/xlink"><g id="tight-bounds" transform="matrix(1,0,0,1,0.5,0)"><svg viewBox="0 0 320 360" height="360" width="320"><rect width="320.00000000000006" height="360" fill="url(#0297882a-d61c-450f-9fbe-5ae8e2928189)" mask="url(#629f0b5a-2e45-4c85-85dc-47ef353269e1)" data-fill-palette-color="tertiary"></rect><g><svg></svg></g><g><svg viewBox="0 0 320 360" height="360" width="320"><g><path d="M20.961 227.22l3.726 4.658-1.863-6.056c-0.466-2.795-3.726 0.466-1.863 1.398M25.153 224.425c1.397 2.329 2.795 4.658 2.795 6.987 0 3.261 2.795 4.658 5.123 5.589-3.261-3.726-5.124-13.974-7.918-12.576M204.017 26.929c7.918 0 15.371-0.932 23.756 0.931 20.495 5.124 37.729 15.371 49.374 29.811l32.606 52.169c1.397 13.042 4.192 27.482 3.726 43.319 3.261 0 2.795-4.658 6.521-5.59-3.726 9.316-5.59 20.961-6.521 34.469-2.329-7.453 0-18.632 0.466-24.687-3.261 5.124-5.124 1.397-5.124-0.932 0.466-3.726-1.397-3.261-2.795-4.658-5.124-4.658-8.384-9.782-12.11-17.7 2.329-6.055 2.795-14.905-4.658-19.563-2.329-1.397-5.124-3.726-6.521-7.453-1.863-5.124-5.124-11.179-4.193-19.097 0.466-2.329-6.987 5.124-11.179 1.863-18.166-12.576-36.332-27.016-58.224-39.127-11.645 0-20.029-4.192-24.221-9.316-3.726-4.658-0.932-10.713 4.658-11.179 3.261 0 6.987-0.932 9.782 0.932 0.466-1.863 2.329-4.192 4.657-4.192M157.904 16.215l0.932 0.466c4.658 0.932 6.987 7.453 12.11 5.124 0 3.261 0.466 6.521-0.466 8.85-1.397 3.726-5.59 3.726-8.85 3.726-31.208-1.863-49.374 11.179-68.471 22.358-5.124 3.261-10.713 5.59-14.906 9.782-20.029 18.632-41.921 35.866-47.045 70.335l-4.192 38.195c-0.466 4.192-5.124 8.384-4.192 13.508l3.26 22.824c-3.261-3.261-5.124 0.932-4.192 2.795 0.466 1.397 2.329 6.055 5.124 1.863 3.726 6.987 7.453 20.495 12.576 26.55 15.837 18.632 36.332 35.4 53.101 52.169 4.192-0.932 7.453-0.932 8.384-3.727 1.397 2.795-1.397 5.59-3.726 6.056 7.453 4.658 15.837 8.85 27.016 9.781 14.44 0.932 27.948 3.261 40.524 6.522 6.521-1.863 13.042-2.795 20.029-3.261 2.329 0 3.726-3.726 6.521-4.658l0.466-4.658c2.795 4.192 2.329-1.397 0.466-4.192 3.261 2.795 4.192 5.124 5.589 6.987 0-1.397 3.726-6.521 3.727-0.466l0.931-6.055c1.397-0.932 1.863 5.124 3.261 0.931 1.397-4.192 4.192-0.932 6.987-2.329-0.932 1.863-0.466 5.59 2.794 3.261l3.727-3.261c2.329 5.59 6.055 3.261 7.918 2.329 20.495-13.042 40.99-28.413 60.553-43.784l-0.466 6.055 2.329-7.453c2.329 2.329 4.192 0.466 5.124-0.931 2.795-4.658 6.521-9.316 12.577-13.508-7.453 20.029-16.303 35.866-27.482 48.908l-4.658 5.59c0 3.261-0.932 7.453-4.658 7.918-1.863 0.466-5.59-0.932-8.384 1.863-1.397 1.863 3.261 5.59-0.466 2.795-3.261-2.329-6.521 0-10.248 0.932-2.795 0.932 1.863 3.726 2.795 5.589 0.932 1.863 1.863 3.726 1.398 6.056l-5.124-5.59c-6.055 3.261-9.782 9.316-14.906 13.974-2.329 1.863-1.397 5.124-1.397 7.918-3.261 0-6.987-0.932-8.85 0.932-1.397 1.863-0.932 4.658-0.932 7.453-4.658-0.466-5.124-7.453-9.315-6.056-4.192 0.932-8.85 1.397-12.577 3.727 2.795 5.59-4.658 2.329-3.726 3.26-6.987-4.192-13.042-7.453-20.495-4.658-15.837-5.124-35.4-2.795-49.84-0.931 0-2.329 0.466-4.658-0.466-5.124-0.932 2.329-3.726 1.397-3.26 1.397-8.85-6.055-17.7-9.782-27.016-14.905-8.384 0.932-16.303-3.261-18.632-5.59-6.521-6.055-13.974-2.795-20.029-4.192-13.042-3.261-17.7-16.769-19.098-26.084-0.932-4.658-4.658-6.521-6.055-6.056-6.055-19.563-15.371-37.263-22.824-55.429-1.863-4.658-1.397-9.316-1.397-14.44 2.329 0.932 4.658 0.466 4.192-2.794-2.329-15.371-7.918-27.016-13.974-38.195 3.261-15.837 3.726-34.469 11.179-48.443 6.521-12.576 18.632-19.098 27.016-29.811 2.795-3.726 2.795-8.85 5.59-12.11 9.316-9.316 18.632-19.098 28.879-27.482 4.658-3.726 10.247 0 17.234-1.397 2.329-8.384 11.645-15.837 20.495-13.508 3.726 0.932 11.179-8.85 13.508-9.782 3.726-1.397 1.863 3.726 1.863 6.987 8.85-6.987 20.961-10.713 32.14-14.906" fill="url(#0297882a-d61c-450f-9fbe-5ae8e2928189)" fill-rule="nonzero" stroke="none" stroke-width="1" stroke-linecap="butt" stroke-linejoin="miter" stroke-miterlimit="10" stroke-dasharray="" stroke-dashoffset="0" font-family="none" font-weight="none" font-size="none" text-anchor="none" style="mix-blend-mode: normal" data-fill-palette-color="tertiary"></path></g><g transform="matrix(1,0,0,1,64,100.04359673024524)"><svg viewBox="0 0 192 159.91280653950952" height="159.91280653950952" width="192"><g><svg viewBox="0 0 192 159.91280653950952" height="159.91280653950952" width="192"><g><svg viewBox="0 0 192 159.91280653950952" height="159.91280653950952" width="192"><g id="textblocktransform"><svg viewBox="0 0 192 159.91280653950952" height="159.91280653950952" width="192" id="textblock"><g><svg viewBox="0 0 192 159.91280653950952" height="159.91280653950952" width="192"><g transform="matrix(1,0,0,1,0,0)"><svg width="192" viewBox="-1.1242424242424243 -35.95 55.07424242424243 45.85000000000001" height="159.91280653950952" data-palette-color="#ff6cab"><path d="M10.45 9.9L10.45 9.9Q10.35 9.9 10.35 9.65L10.35 9.65Q10.35 5.85 13.05-0.2L13.05-0.2Q14.6-3.65 15.5-6.1 16.4-8.55 16.6-10L16.6-10 16.55-9.95Q15.2-11.6 15.2-13.5L15.2-13.5Q15.2-15.4 16.2-15.4L16.2-15.4Q16.75-15.4 17.2-14.5L17.2-14.5Q17.5-17.6 17.5-20.4L17.5-20.4Q17.5-25.25 16.65-28.9L16.65-28.9Q14.9-30.05 12.65-30.05L12.65-30.05Q7.75-30.05 4-25.7L4-25.7Q0.35-21.6 0.35-16.55L0.35-16.55Q0.35-13.75 1.55-12.6L1.55-12.6Q2.95-11.2 4.95-11.2L4.95-11.2Q7.15-11.2 9.5-12.8L9.5-12.8Q10.55-13.5 11.43-14.4 12.3-15.3 13-16.3L13-16.3Q13.15-16.5 13.25-16.5L13.25-16.5Q13.35-16.5 13.35-16.3L13.35-16.3Q13.35-16.25 13.25-15.95L13.25-15.95Q11.95-13.85 9.25-12L9.25-12Q6.35-10.05 4.05-10.05L4.05-10.05Q1.6-10.05 0.15-11.83-1.3-13.6-1.1-16.1L-1.1-16.1Q-1.1-19.15 0.15-21.85L0.15-21.85Q1.85-25.6 5.9-28.2L5.9-28.2Q9.95-30.75 14.15-30.75L14.15-30.75Q15.2-30.75 16.15-30.6L16.15-30.6Q14.7-34.7 11.85-35.2L11.85-35.2Q11.6-35.3 11.6-35.45L11.6-35.45Q11.6-35.95 12.3-35.95L12.3-35.95Q15.4-35.95 16.95-30.4L16.95-30.4Q24.05-28.45 24.05-18.2L24.05-18.2Q24.05-12.35 21.3-5.65L21.3-5.65Q20.65-3.95 19.23-1.05 17.8 1.85 15.6 6L15.6 6Q15.45 6.2 15.25 6.2L15.25 6.2Q14.85 6.2 14.85 5.85L14.85 5.85Q14.85 5.5 16.45 0.95L16.45 0.95Q17.45-1.8 18.18-4.1 18.9-6.4 19.4-8.25L19.4-8.25Q20.95-14.1 20.95-17.95L20.95-17.95Q20.95-25.25 17.45-28.3L17.45-28.3Q17.8-26.6 17.95-24.7 18.1-22.8 18.1-20.65L18.1-20.65Q18.1-19.05 18-17.32 17.9-15.6 17.7-13.85L17.7-13.85Q18.8-14.8 19.45-14.8L19.45-14.8Q19.95-14.8 19.95-14.25L19.95-14.25Q19.95-12.3 17.25-10.35L17.25-10.35Q15.35 2.05 10.75 9.65L10.75 9.65Q10.6 9.9 10.45 9.9ZM15.45 7.05L15.45 7.05Q15.3 7.05 15.3 6.9L15.3 6.9Q15.3 6.5 15.58 6.4 15.85 6.3 16.85 5.65L16.85 5.65Q19 3.95 23.8-4L23.8-4Q27.45-10.1 29.98-14.08 32.5-18.05 33.9-19.9L33.9-19.9Q37.35-24.6 40.75-27.68 44.15-30.75 47.5-32.3L47.5-32.3Q48.7-32.9 49.95-32.9L49.95-32.9Q51.9-32.9 52.93-31.58 53.95-30.25 53.95-28.25L53.95-28.25Q53.95-27.9 53.88-27.4 53.8-26.9 53.7-26.2L53.7-26.2Q53.4-24.55 53.05-24.5L53.05-24.5Q53-24.55 53-24.65L53-24.65Q53-25 53.25-25.9 53.5-26.8 53.5-27.3L53.5-27.3Q53.5-30.8 49.85-30.8L49.85-30.8Q48.3-30.8 46.7-30.05L46.7-30.05Q42.3-28.1 37.65-22.85L37.65-22.85Q35.9-20.9 33.98-18.3 32.05-15.7 29.9-12.45L29.9-12.45Q28.35-9.95 26.75-7.4 25.15-4.85 23.55-2.35L23.55-2.35Q17.45 7.05 15.45 7.05Z" opacity="1" transform="matrix(1,0,0,1,0,0)" fill="#ff6cab" class="wordmark-text-0" data-fill-palette-color="primary" id="text-0"></path></svg></g></svg></g></svg></g></svg></g></svg></g></svg></g></svg></g><defs></defs><mask id="629f0b5a-2e45-4c85-85dc-47ef353269e1"><g id="SvgjsG2481"><svg viewBox="0 0 320 360" height="360" width="320"><g><svg></svg></g><g><svg viewBox="0 0 320 360" height="360" width="320"><g><path d="M20.961 227.22l3.726 4.658-1.863-6.056c-0.466-2.795-3.726 0.466-1.863 1.398M25.153 224.425c1.397 2.329 2.795 4.658 2.795 6.987 0 3.261 2.795 4.658 5.123 5.589-3.261-3.726-5.124-13.974-7.918-12.576M204.017 26.929c7.918 0 15.371-0.932 23.756 0.931 20.495 5.124 37.729 15.371 49.374 29.811l32.606 52.169c1.397 13.042 4.192 27.482 3.726 43.319 3.261 0 2.795-4.658 6.521-5.59-3.726 9.316-5.59 20.961-6.521 34.469-2.329-7.453 0-18.632 0.466-24.687-3.261 5.124-5.124 1.397-5.124-0.932 0.466-3.726-1.397-3.261-2.795-4.658-5.124-4.658-8.384-9.782-12.11-17.7 2.329-6.055 2.795-14.905-4.658-19.563-2.329-1.397-5.124-3.726-6.521-7.453-1.863-5.124-5.124-11.179-4.193-19.097 0.466-2.329-6.987 5.124-11.179 1.863-18.166-12.576-36.332-27.016-58.224-39.127-11.645 0-20.029-4.192-24.221-9.316-3.726-4.658-0.932-10.713 4.658-11.179 3.261 0 6.987-0.932 9.782 0.932 0.466-1.863 2.329-4.192 4.657-4.192M157.904 16.215l0.932 0.466c4.658 0.932 6.987 7.453 12.11 5.124 0 3.261 0.466 6.521-0.466 8.85-1.397 3.726-5.59 3.726-8.85 3.726-31.208-1.863-49.374 11.179-68.471 22.358-5.124 3.261-10.713 5.59-14.906 9.782-20.029 18.632-41.921 35.866-47.045 70.335l-4.192 38.195c-0.466 4.192-5.124 8.384-4.192 13.508l3.26 22.824c-3.261-3.261-5.124 0.932-4.192 2.795 0.466 1.397 2.329 6.055 5.124 1.863 3.726 6.987 7.453 20.495 12.576 26.55 15.837 18.632 36.332 35.4 53.101 52.169 4.192-0.932 7.453-0.932 8.384-3.727 1.397 2.795-1.397 5.59-3.726 6.056 7.453 4.658 15.837 8.85 27.016 9.781 14.44 0.932 27.948 3.261 40.524 6.522 6.521-1.863 13.042-2.795 20.029-3.261 2.329 0 3.726-3.726 6.521-4.658l0.466-4.658c2.795 4.192 2.329-1.397 0.466-4.192 3.261 2.795 4.192 5.124 5.589 6.987 0-1.397 3.726-6.521 3.727-0.466l0.931-6.055c1.397-0.932 1.863 5.124 3.261 0.931 1.397-4.192 4.192-0.932 6.987-2.329-0.932 1.863-0.466 5.59 2.794 3.261l3.727-3.261c2.329 5.59 6.055 3.261 7.918 2.329 20.495-13.042 40.99-28.413 60.553-43.784l-0.466 6.055 2.329-7.453c2.329 2.329 4.192 0.466 5.124-0.931 2.795-4.658 6.521-9.316 12.577-13.508-7.453 20.029-16.303 35.866-27.482 48.908l-4.658 5.59c0 3.261-0.932 7.453-4.658 7.918-1.863 0.466-5.59-0.932-8.384 1.863-1.397 1.863 3.261 5.59-0.466 2.795-3.261-2.329-6.521 0-10.248 0.932-2.795 0.932 1.863 3.726 2.795 5.589 0.932 1.863 1.863 3.726 1.398 6.056l-5.124-5.59c-6.055 3.261-9.782 9.316-14.906 13.974-2.329 1.863-1.397 5.124-1.397 7.918-3.261 0-6.987-0.932-8.85 0.932-1.397 1.863-0.932 4.658-0.932 7.453-4.658-0.466-5.124-7.453-9.315-6.056-4.192 0.932-8.85 1.397-12.577 3.727 2.795 5.59-4.658 2.329-3.726 3.26-6.987-4.192-13.042-7.453-20.495-4.658-15.837-5.124-35.4-2.795-49.84-0.931 0-2.329 0.466-4.658-0.466-5.124-0.932 2.329-3.726 1.397-3.26 1.397-8.85-6.055-17.7-9.782-27.016-14.905-8.384 0.932-16.303-3.261-18.632-5.59-6.521-6.055-13.974-2.795-20.029-4.192-13.042-3.261-17.7-16.769-19.098-26.084-0.932-4.658-4.658-6.521-6.055-6.056-6.055-19.563-15.371-37.263-22.824-55.429-1.863-4.658-1.397-9.316-1.397-14.44 2.329 0.932 4.658 0.466 4.192-2.794-2.329-15.371-7.918-27.016-13.974-38.195 3.261-15.837 3.726-34.469 11.179-48.443 6.521-12.576 18.632-19.098 27.016-29.811 2.795-3.726 2.795-8.85 5.59-12.11 9.316-9.316 18.632-19.098 28.879-27.482 4.658-3.726 10.247 0 17.234-1.397 2.329-8.384 11.645-15.837 20.495-13.508 3.726 0.932 11.179-8.85 13.508-9.782 3.726-1.397 1.863 3.726 1.863 6.987 8.85-6.987 20.961-10.713 32.14-14.906" fill="white" fill-rule="nonzero" stroke="none" stroke-width="1" stroke-linecap="butt" stroke-linejoin="miter" stroke-miterlimit="10" stroke-dasharray="" stroke-dashoffset="0" font-family="none" font-weight="none" font-size="none" text-anchor="none" style="mix-blend-mode: normal"></path></g><g transform="matrix(1,0,0,1,64,100.04359673024524)"><svg viewBox="0 0 192 159.91280653950952" height="159.91280653950952" width="192"><g><svg viewBox="0 0 192 159.91280653950952" height="159.91280653950952" width="192"><g><svg viewBox="0 0 192 159.91280653950952" height="159.91280653950952" width="192"><g id="SvgjsG2480"><svg viewBox="0 0 192 159.91280653950952" height="159.91280653950952" width="192" id="SvgjsSvg2479"><g><svg viewBox="0 0 192 159.91280653950952" height="159.91280653950952" width="192"><g transform="matrix(1,0,0,1,0,0)"><svg width="192" viewBox="-1.1242424242424243 -35.95 55.07424242424243 45.85000000000001" height="159.91280653950952" data-palette-color="#ff6cab"><path d="M10.45 9.9L10.45 9.9Q10.35 9.9 10.35 9.65L10.35 9.65Q10.35 5.85 13.05-0.2L13.05-0.2Q14.6-3.65 15.5-6.1 16.4-8.55 16.6-10L16.6-10 16.55-9.95Q15.2-11.6 15.2-13.5L15.2-13.5Q15.2-15.4 16.2-15.4L16.2-15.4Q16.75-15.4 17.2-14.5L17.2-14.5Q17.5-17.6 17.5-20.4L17.5-20.4Q17.5-25.25 16.65-28.9L16.65-28.9Q14.9-30.05 12.65-30.05L12.65-30.05Q7.75-30.05 4-25.7L4-25.7Q0.35-21.6 0.35-16.55L0.35-16.55Q0.35-13.75 1.55-12.6L1.55-12.6Q2.95-11.2 4.95-11.2L4.95-11.2Q7.15-11.2 9.5-12.8L9.5-12.8Q10.55-13.5 11.43-14.4 12.3-15.3 13-16.3L13-16.3Q13.15-16.5 13.25-16.5L13.25-16.5Q13.35-16.5 13.35-16.3L13.35-16.3Q13.35-16.25 13.25-15.95L13.25-15.95Q11.95-13.85 9.25-12L9.25-12Q6.35-10.05 4.05-10.05L4.05-10.05Q1.6-10.05 0.15-11.83-1.3-13.6-1.1-16.1L-1.1-16.1Q-1.1-19.15 0.15-21.85L0.15-21.85Q1.85-25.6 5.9-28.2L5.9-28.2Q9.95-30.75 14.15-30.75L14.15-30.75Q15.2-30.75 16.15-30.6L16.15-30.6Q14.7-34.7 11.85-35.2L11.85-35.2Q11.6-35.3 11.6-35.45L11.6-35.45Q11.6-35.95 12.3-35.95L12.3-35.95Q15.4-35.95 16.95-30.4L16.95-30.4Q24.05-28.45 24.05-18.2L24.05-18.2Q24.05-12.35 21.3-5.65L21.3-5.65Q20.65-3.95 19.23-1.05 17.8 1.85 15.6 6L15.6 6Q15.45 6.2 15.25 6.2L15.25 6.2Q14.85 6.2 14.85 5.85L14.85 5.85Q14.85 5.5 16.45 0.95L16.45 0.95Q17.45-1.8 18.18-4.1 18.9-6.4 19.4-8.25L19.4-8.25Q20.95-14.1 20.95-17.95L20.95-17.95Q20.95-25.25 17.45-28.3L17.45-28.3Q17.8-26.6 17.95-24.7 18.1-22.8 18.1-20.65L18.1-20.65Q18.1-19.05 18-17.32 17.9-15.6 17.7-13.85L17.7-13.85Q18.8-14.8 19.45-14.8L19.45-14.8Q19.95-14.8 19.95-14.25L19.95-14.25Q19.95-12.3 17.25-10.35L17.25-10.35Q15.35 2.05 10.75 9.65L10.75 9.65Q10.6 9.9 10.45 9.9ZM15.45 7.05L15.45 7.05Q15.3 7.05 15.3 6.9L15.3 6.9Q15.3 6.5 15.58 6.4 15.85 6.3 16.85 5.65L16.85 5.65Q19 3.95 23.8-4L23.8-4Q27.45-10.1 29.98-14.08 32.5-18.05 33.9-19.9L33.9-19.9Q37.35-24.6 40.75-27.68 44.15-30.75 47.5-32.3L47.5-32.3Q48.7-32.9 49.95-32.9L49.95-32.9Q51.9-32.9 52.93-31.58 53.95-30.25 53.95-28.25L53.95-28.25Q53.95-27.9 53.88-27.4 53.8-26.9 53.7-26.2L53.7-26.2Q53.4-24.55 53.05-24.5L53.05-24.5Q53-24.55 53-24.65L53-24.65Q53-25 53.25-25.9 53.5-26.8 53.5-27.3L53.5-27.3Q53.5-30.8 49.85-30.8L49.85-30.8Q48.3-30.8 46.7-30.05L46.7-30.05Q42.3-28.1 37.65-22.85L37.65-22.85Q35.9-20.9 33.98-18.3 32.05-15.7 29.9-12.45L29.9-12.45Q28.35-9.95 26.75-7.4 25.15-4.85 23.55-2.35L23.55-2.35Q17.45 7.05 15.45 7.05Z" opacity="1" transform="matrix(1,0,0,1,0,0)" fill="black" class="wordmark-text-0" id="SvgjsPath2478"></path></svg></g></svg></g></svg></g></svg></g></svg></g></svg></g></svg></g><defs><mask></mask></defs></svg><rect width="320" height="360" fill="black" stroke="none" visibility="hidden"></rect></g></mask><linearGradient x1="0" x2="1" y1="0.548" y2="0.55" id="0297882a-d61c-450f-9fbe-5ae8e2928189"><stop stop-color="#ff6cab" offset="0"></stop><stop stop-color="#7366ff" offset="1"></stop></linearGradient></svg><rect width="320" height="360" fill="none" stroke="none" visibility="hidden"></rect></g></svg></g></svg>